<svg xmlns="http://www.w3.org/2000/svg" width="19.247" height="19.275" viewBox="0 0 19.247 19.275"><defs><style>.a{fill:#d0d0da;}</style></defs><path class="a" d="M39.986,38.607l-3.592-3.56a8.68,8.68,0,0,0-.641-11.514A8.652,8.652,0,0,0,23.534,35.785a8.647,8.647,0,0,0,11.514.641l3.56,3.56a.923.923,0,0,0,.673.289.873.873,0,0,0,.673-.289A1,1,0,0,0,39.986,38.607Zm-3.592-8.948a6.6,6.6,0,0,1-1.988,4.747,6.783,6.783,0,0,1-4.747,1.988,6.6,6.6,0,0,1-4.747-1.988,6.783,6.783,0,0,1-1.988-4.747,6.6,6.6,0,0,1,1.988-4.747,6.726,6.726,0,0,1,4.747-1.988,6.6,6.6,0,0,1,4.747,1.988A6.726,6.726,0,0,1,36.394,29.659Z" transform="translate(-21 -21)"/></svg>